<svg xmlns="http://www.w3.org/2000/svg" enable-background="new 0 0 24 24" viewBox="0 0 24 24"><path fill="#95BF46" d="M19.932,4.673c-0.017-0.121-0.122-0.188-0.21-0.194l-1.932-0.145c0,0-1.281-1.272-1.422-1.412c-0.141-0.141-0.415-0.099-0.522-0.066c-0.016,0.004-0.28,0.086-0.717,0.221c-0.427-1.232-1.183-2.364-2.511-2.364l-0.112,0.004C12.128,0.217,11.66,0,11.255,0C8.16,0,6.681,3.869,6.218,5.836C5.015,6.208,4.161,6.474,4.052,6.508C3.38,6.718,3.359,6.739,3.271,7.372C3.205,7.851,1.448,21.436,1.448,21.436L15.136,24l7.417-1.604C22.552,22.395,19.949,4.794,19.932,4.673L19.932,4.673z M14.374,3.311l-1.158,0.358l0-0.25c0-0.766-0.106-1.382-0.276-1.87C13.624,1.635,14.08,2.414,14.374,3.311L14.374,3.311z M12.09,1.701c0.19,0.477,0.314,1.161,0.314,2.085L12.403,3.92c-0.754,0.233-1.572,0.486-2.392,0.741C10.472,2.883,11.335,2.024,12.09,1.701L12.09,1.701z M11.17,0.83c0.134,0,0.268,0.046,0.397,0.134c-0.992,0.467-2.055,1.642-2.504,3.99L7.172,5.54C7.698,3.749,8.947,0.83,11.17,0.83L11.17,0.83z"/><path fill="#FFF" d="M12.618,8.576l-0.915,2.72c0,0-0.801-0.427-1.784-0.427c-1.439,0-1.512,0.903-1.512,1.131c0,1.242,3.239,1.719,3.239,4.629c0,2.289-1.452,3.764-3.41,3.764c-2.349,0-3.551-1.463-3.551-1.463l0.629-2.078c0,0,1.235,1.061,2.277,1.061c0.681,0,0.958-0.536,0.958-0.929c0-1.62-2.656-1.692-2.656-4.355c0-2.241,1.609-4.41,4.856-4.41C12,8.218,12.618,8.576,12.618,8.576L12.618,8.576z"/><path fill="#DEDEDE" d="M10.372,0.963C8.642,1.552,7.631,3.976,7.172,5.54l1.891-0.586c0.267-1.396,0.751-2.377,1.309-3.042V0.963L10.372,0.963z"/><path fill="#82A63D" d="M9.92,10.869c-1.439,0-1.512,0.903-1.512,1.131c0,0.71,1.058,1.17,1.964,1.977v-3.079C10.227,10.88,10.076,10.869,9.92,10.869L9.92,10.869z M10.372,0.111C7.874,0.758,6.635,4.067,6.218,5.836C5.015,6.208,4.161,6.474,4.052,6.508C3.38,6.718,3.359,6.739,3.271,7.372C3.205,7.851,1.448,21.436,1.448,21.436l8.924,1.672v-3.451c-0.575,0.474-1.31,0.737-2.135,0.737c-2.349,0-3.551-1.463-3.551-1.463l0.629-2.078c0,0,1.235,1.061,2.277,1.061c0.681,0,0.958-0.536,0.958-0.929c0-1.62-2.656-1.692-2.656-4.355c0-2.152,1.484-4.239,4.479-4.4V4.549c-0.12,0.037-0.24,0.074-0.36,0.112c0.102-0.394,0.224-0.744,0.36-1.052V1.912C9.814,2.577,9.33,3.558,9.063,4.954L7.172,5.54c0.459-1.564,1.47-3.988,3.199-4.577V0.111L10.372,0.111z"/><path fill="#DEDEDE" d="M10.372 8.228c-2.995.161-4.479 2.248-4.479 4.4 0 2.663 2.656 2.736 2.656 4.355 0 .393-.276.929-.958.929-1.042 0-2.277-1.061-2.277-1.061L4.685 18.93c0 0 1.202 1.463 3.551 1.463.825 0 1.561-.262 2.135-.737v-5.68C9.465 13.17 8.407 12.71 8.407 12c0-.228.073-1.131 1.512-1.131.156 0 .307.011.452.029V8.228L10.372 8.228zM10.372 3.61c-.136.308-.258.657-.36 1.052.12-.037.24-.075.36-.112V3.61L10.372 3.61z"/><path fill="#5E8E3E" d="M19.723,4.479l-1.932-0.145c0,0-1.281-1.272-1.422-1.412l-0.197-0.091L15.136,24l7.416-1.604c0,0-2.604-17.601-2.62-17.722C19.915,4.552,19.81,4.485,19.723,4.479L19.723,4.479z"/><path fill="#527C36" d="M16.172,2.831L15.136,24l2.654-0.574V4.333c-0.027-0.027-1.282-1.273-1.421-1.412L16.172,2.831L16.172,2.831z"/></svg>